<svg width="176" height="176" viewBox="0 0 176 176" fill="none" xmlns="http://www.w3.org/2000/svg">
<path d="M8.93343 7.59961V4.26628C8.93343 4.08947 8.86319 3.9199 8.73817 3.79487C8.61314 3.66985 8.44357 3.59961 8.26676 3.59961C8.08995 3.59961 7.92038 3.66985 7.79536 3.79487C7.67034 3.9199 7.6001 4.08947 7.6001 4.26628V7.59961H4.26676C4.08995 7.59961 3.92038 7.66985 3.79536 7.79487C3.67034 7.9199 3.6001 8.08946 3.6001 8.26628C3.6001 8.44309 3.67034 8.61266 3.79536 8.73768C3.92038 8.8627 4.08995 8.93294 4.26676 8.93294H7.6001V12.2663C7.6001 12.4431 7.67034 12.6127 7.79536 12.7377C7.92038 12.8627 8.08995 12.9329 8.26676 12.9329C8.44357 12.9329 8.61314 12.8627 8.73817 12.7377C8.86319 12.6127 8.93343 12.4431 8.93343 12.2663V8.93294H12.2668C12.4436 8.93294 12.6131 8.8627 12.7382 8.73768C12.8632 8.61266 12.9334 8.44309 12.9334 8.26628C12.9334 8.08946 12.8632 7.9199 12.7382 7.79487C12.6131 7.66985 12.4436 7.59961 12.2668 7.59961H8.93343Z" fill="#E2E8F0"/>
<path d="M40.9334 7.59961V4.26628C40.9334 4.08947 40.8632 3.9199 40.7382 3.79487C40.6131 3.66985 40.4436 3.59961 40.2668 3.59961C40.09 3.59961 39.9204 3.66985 39.7954 3.79487C39.6703 3.9199 39.6001 4.08947 39.6001 4.26628V7.59961H36.2668C36.09 7.59961 35.9204 7.66985 35.7954 7.79487C35.6703 7.9199 35.6001 8.08946 35.6001 8.26628C35.6001 8.44309 35.6703 8.61266 35.7954 8.73768C35.9204 8.8627 36.09 8.93294 36.2668 8.93294H39.6001V12.2663C39.6001 12.4431 39.6703 12.6127 39.7954 12.7377C39.9204 12.8627 40.09 12.9329 40.2668 12.9329C40.4436 12.9329 40.6131 12.8627 40.7382 12.7377C40.8632 12.6127 40.9334 12.4431 40.9334 12.2663V8.93294H44.2668C44.4436 8.93294 44.6131 8.8627 44.7382 8.73768C44.8632 8.61266 44.9334 8.44309 44.9334 8.26628C44.9334 8.08946 44.8632 7.9199 44.7382 7.79487C44.6131 7.66985 44.4436 7.59961 44.2668 7.59961H40.9334Z" fill="#E2E8F0"/>
<path d="M72.9334 7.59961V4.26628C72.9334 4.08947 72.8632 3.9199 72.7382 3.79487C72.6131 3.66985 72.4436 3.59961 72.2668 3.59961C72.09 3.59961 71.9204 3.66985 71.7954 3.79487C71.6703 3.9199 71.6001 4.08947 71.6001 4.26628V7.59961H68.2668C68.09 7.59961 67.9204 7.66985 67.7954 7.79487C67.6703 7.9199 67.6001 8.08946 67.6001 8.26628C67.6001 8.44309 67.6703 8.61266 67.7954 8.73768C67.9204 8.8627 68.09 8.93294 68.2668 8.93294H71.6001V12.2663C71.6001 12.4431 71.6703 12.6127 71.7954 12.7377C71.9204 12.8627 72.09 12.9329 72.2668 12.9329C72.4436 12.9329 72.6131 12.8627 72.7382 12.7377C72.8632 12.6127 72.9334 12.4431 72.9334 12.2663V8.93294H76.2668C76.4436 8.93294 76.6131 8.8627 76.7382 8.73768C76.8632 8.61266 76.9334 8.44309 76.9334 8.26628C76.9334 8.08946 76.8632 7.9199 76.7382 7.79487C76.6131 7.66985 76.4436 7.59961 76.2668 7.59961H72.9334Z" fill="#E2E8F0"/>
<path d="M104.933 7.59961V4.26628C104.933 4.08947 104.863 3.9199 104.738 3.79487C104.613 3.66985 104.444 3.59961 104.267 3.59961C104.09 3.59961 103.92 3.66985 103.795 3.79487C103.67 3.9199 103.6 4.08947 103.6 4.26628V7.59961H100.267C100.09 7.59961 99.9204 7.66985 99.7954 7.79487C99.6703 7.9199 99.6001 8.08946 99.6001 8.26628C99.6001 8.44309 99.6703 8.61266 99.7954 8.73768C99.9204 8.8627 100.09 8.93294 100.267 8.93294H103.6V12.2663C103.6 12.4431 103.67 12.6127 103.795 12.7377C103.92 12.8627 104.09 12.9329 104.267 12.9329C104.444 12.9329 104.613 12.8627 104.738 12.7377C104.863 12.6127 104.933 12.4431 104.933 12.2663V8.93294H108.267C108.444 8.93294 108.613 8.8627 108.738 8.73768C108.863 8.61266 108.933 8.44309 108.933 8.26628C108.933 8.08946 108.863 7.9199 108.738 7.79487C108.613 7.66985 108.444 7.59961 108.267 7.59961H104.933Z" fill="#E2E8F0"/>
<path d="M136.933 7.59961V4.26628C136.933 4.08947 136.863 3.9199 136.738 3.79487C136.613 3.66985 136.444 3.59961 136.267 3.59961C136.09 3.59961 135.92 3.66985 135.795 3.79487C135.67 3.9199 135.6 4.08947 135.6 4.26628V7.59961H132.267C132.09 7.59961 131.92 7.66985 131.795 7.79487C131.67 7.9199 131.6 8.08946 131.6 8.26628C131.6 8.44309 131.67 8.61266 131.795 8.73768C131.92 8.8627 132.09 8.93294 132.267 8.93294H135.6V12.2663C135.6 12.4431 135.67 12.6127 135.795 12.7377C135.92 12.8627 136.09 12.9329 136.267 12.9329C136.444 12.9329 136.613 12.8627 136.738 12.7377C136.863 12.6127 136.933 12.4431 136.933 12.2663V8.93294H140.267C140.444 8.93294 140.613 8.8627 140.738 8.73768C140.863 8.61266 140.933 8.44309 140.933 8.26628C140.933 8.08946 140.863 7.9199 140.738 7.79487C140.613 7.66985 140.444 7.59961 140.267 7.59961H136.933Z" fill="#2563EB"/>
<path d="M168.933 7.59961V4.26628C168.933 4.08947 168.863 3.9199 168.738 3.79487C168.613 3.66985 168.444 3.59961 168.267 3.59961C168.09 3.59961 167.92 3.66985 167.795 3.79487C167.67 3.9199 167.6 4.08947 167.6 4.26628V7.59961H164.267C164.09 7.59961 163.92 7.66985 163.795 7.79487C163.67 7.9199 163.6 8.08946 163.6 8.26628C163.6 8.44309 163.67 8.61266 163.795 8.73768C163.92 8.8627 164.09 8.93294 164.267 8.93294H167.6V12.2663C167.6 12.4431 167.67 12.6127 167.795 12.7377C167.92 12.8627 168.09 12.9329 168.267 12.9329C168.444 12.9329 168.613 12.8627 168.738 12.7377C168.863 12.6127 168.933 12.4431 168.933 12.2663V8.93294H172.267C172.444 8.93294 172.613 8.8627 172.738 8.73768C172.863 8.61266 172.933 8.44309 172.933 8.26628C172.933 8.08946 172.863 7.9199 172.738 7.79487C172.613 7.66985 172.444 7.59961 172.267 7.59961H168.933Z" fill="#E2E8F0"/>
<path d="M8.93343 39.5996V36.2663C8.93343 36.0895 8.86319 35.9199 8.73817 35.7949C8.61314 35.6698 8.44357 35.5996 8.26676 35.5996C8.08995 35.5996 7.92038 35.6698 7.79536 35.7949C7.67034 35.9199 7.6001 36.0895 7.6001 36.2663V39.5996H4.26676C4.08995 39.5996 3.92038 39.6698 3.79536 39.7949C3.67034 39.9199 3.6001 40.0895 3.6001 40.2663C3.6001 40.4431 3.67034 40.6127 3.79536 40.7377C3.92038 40.8627 4.08995 40.9329 4.26676 40.9329H7.6001V44.2663C7.6001 44.4431 7.67034 44.6127 7.79536 44.7377C7.92038 44.8627 8.08995 44.9329 8.26676 44.9329C8.44357 44.9329 8.61314 44.8627 8.73817 44.7377C8.86319 44.6127 8.93343 44.4431 8.93343 44.2663V40.9329H12.2668C12.4436 40.9329 12.6131 40.8627 12.7382 40.7377C12.8632 40.6127 12.9334 40.4431 12.9334 40.2663C12.9334 40.0895 12.8632 39.9199 12.7382 39.7949C12.6131 39.6698 12.4436 39.5996 12.2668 39.5996H8.93343Z" fill="#E2E8F0"/>
<path d="M40.9334 39.5996V36.2663C40.9334 36.0895 40.8632 35.9199 40.7382 35.7949C40.6131 35.6698 40.4436 35.5996 40.2668 35.5996C40.09 35.5996 39.9204 35.6698 39.7954 35.7949C39.6703 35.9199 39.6001 36.0895 39.6001 36.2663V39.5996H36.2668C36.09 39.5996 35.9204 39.6698 35.7954 39.7949C35.6703 39.9199 35.6001 40.0895 35.6001 40.2663C35.6001 40.4431 35.6703 40.6127 35.7954 40.7377C35.9204 40.8627 36.09 40.9329 36.2668 40.9329H39.6001V44.2663C39.6001 44.4431 39.6703 44.6127 39.7954 44.7377C39.9204 44.8627 40.09 44.9329 40.2668 44.9329C40.4436 44.9329 40.6131 44.8627 40.7382 44.7377C40.8632 44.6127 40.9334 44.4431 40.9334 44.2663V40.9329H44.2668C44.4436 40.9329 44.6131 40.8627 44.7382 40.7377C44.8632 40.6127 44.9334 40.4431 44.9334 40.2663C44.9334 40.0895 44.8632 39.9199 44.7382 39.7949C44.6131 39.6698 44.4436 39.5996 44.2668 39.5996H40.9334Z" fill="#9333EA"/>
<path d="M72.9334 39.5996V36.2663C72.9334 36.0895 72.8632 35.9199 72.7382 35.7949C72.6131 35.6698 72.4436 35.5996 72.2668 35.5996C72.09 35.5996 71.9204 35.6698 71.7954 35.7949C71.6703 35.9199 71.6001 36.0895 71.6001 36.2663V39.5996H68.2668C68.09 39.5996 67.9204 39.6698 67.7954 39.7949C67.6703 39.9199 67.6001 40.0895 67.6001 40.2663C67.6001 40.4431 67.6703 40.6127 67.7954 40.7377C67.9204 40.8627 68.09 40.9329 68.2668 40.9329H71.6001V44.2663C71.6001 44.4431 71.6703 44.6127 71.7954 44.7377C71.9204 44.8627 72.09 44.9329 72.2668 44.9329C72.4436 44.9329 72.6131 44.8627 72.7382 44.7377C72.8632 44.6127 72.9334 44.4431 72.9334 44.2663V40.9329H76.2668C76.4436 40.9329 76.6131 40.8627 76.7382 40.7377C76.8632 40.6127 76.9334 40.4431 76.9334 40.2663C76.9334 40.0895 76.8632 39.9199 76.7382 39.7949C76.6131 39.6698 76.4436 39.5996 76.2668 39.5996H72.9334Z" fill="#E2E8F0"/>
<path d="M104.933 39.5996V36.2663C104.933 36.0895 104.863 35.9199 104.738 35.7949C104.613 35.6698 104.444 35.5996 104.267 35.5996C104.09 35.5996 103.92 35.6698 103.795 35.7949C103.67 35.9199 103.6 36.0895 103.6 36.2663V39.5996H100.267C100.09 39.5996 99.9204 39.6698 99.7954 39.7949C99.6703 39.9199 99.6001 40.0895 99.6001 40.2663C99.6001 40.4431 99.6703 40.6127 99.7954 40.7377C99.9204 40.8627 100.09 40.9329 100.267 40.9329H103.6V44.2663C103.6 44.4431 103.67 44.6127 103.795 44.7377C103.92 44.8627 104.09 44.9329 104.267 44.9329C104.444 44.9329 104.613 44.8627 104.738 44.7377C104.863 44.6127 104.933 44.4431 104.933 44.2663V40.9329H108.267C108.444 40.9329 108.613 40.8627 108.738 40.7377C108.863 40.6127 108.933 40.4431 108.933 40.2663C108.933 40.0895 108.863 39.9199 108.738 39.7949C108.613 39.6698 108.444 39.5996 108.267 39.5996H104.933Z" fill="#E2E8F0"/>
<path d="M136.933 39.5996V36.2663C136.933 36.0895 136.863 35.9199 136.738 35.7949C136.613 35.6698 136.444 35.5996 136.267 35.5996C136.09 35.5996 135.92 35.6698 135.795 35.7949C135.67 35.9199 135.6 36.0895 135.6 36.2663V39.5996H132.267C132.09 39.5996 131.92 39.6698 131.795 39.7949C131.67 39.9199 131.6 40.0895 131.6 40.2663C131.6 40.4431 131.67 40.6127 131.795 40.7377C131.92 40.8627 132.09 40.9329 132.267 40.9329H135.6V44.2663C135.6 44.4431 135.67 44.6127 135.795 44.7377C135.92 44.8627 136.09 44.9329 136.267 44.9329C136.444 44.9329 136.613 44.8627 136.738 44.7377C136.863 44.6127 136.933 44.4431 136.933 44.2663V40.9329H140.267C140.444 40.9329 140.613 40.8627 140.738 40.7377C140.863 40.6127 140.933 40.4431 140.933 40.2663C140.933 40.0895 140.863 39.9199 140.738 39.7949C140.613 39.6698 140.444 39.5996 140.267 39.5996H136.933Z" fill="#E2E8F0"/>
<path d="M168.933 39.5996V36.2663C168.933 36.0895 168.863 35.9199 168.738 35.7949C168.613 35.6698 168.444 35.5996 168.267 35.5996C168.09 35.5996 167.92 35.6698 167.795 35.7949C167.67 35.9199 167.6 36.0895 167.6 36.2663V39.5996H164.267C164.09 39.5996 163.92 39.6698 163.795 39.7949C163.67 39.9199 163.6 40.0895 163.6 40.2663C163.6 40.4431 163.67 40.6127 163.795 40.7377C163.92 40.8627 164.09 40.9329 164.267 40.9329H167.6V44.2663C167.6 44.4431 167.67 44.6127 167.795 44.7377C167.92 44.8627 168.09 44.9329 168.267 44.9329C168.444 44.9329 168.613 44.8627 168.738 44.7377C168.863 44.6127 168.933 44.4431 168.933 44.2663V40.9329H172.267C172.444 40.9329 172.613 40.8627 172.738 40.7377C172.863 40.6127 172.933 40.4431 172.933 40.2663C172.933 40.0895 172.863 39.9199 172.738 39.7949C172.613 39.6698 172.444 39.5996 172.267 39.5996H168.933Z" fill="#E2E8F0"/>
<path d="M8.93343 71.5996V68.2663C8.93343 68.0895 8.86319 67.9199 8.73817 67.7949C8.61314 67.6698 8.44357 67.5996 8.26676 67.5996C8.08995 67.5996 7.92038 67.6698 7.79536 67.7949C7.67034 67.9199 7.6001 68.0895 7.6001 68.2663V71.5996H4.26676C4.08995 71.5996 3.92038 71.6698 3.79536 71.7949C3.67034 71.9199 3.6001 72.0895 3.6001 72.2663C3.6001 72.4431 3.67034 72.6127 3.79536 72.7377C3.92038 72.8627 4.08995 72.9329 4.26676 72.9329H7.6001V76.2663C7.6001 76.4431 7.67034 76.6127 7.79536 76.7377C7.92038 76.8627 8.08995 76.9329 8.26676 76.9329C8.44357 76.9329 8.61314 76.8627 8.73817 76.7377C8.86319 76.6127 8.93343 76.4431 8.93343 76.2663V72.9329H12.2668C12.4436 72.9329 12.6131 72.8627 12.7382 72.7377C12.8632 72.6127 12.9334 72.4431 12.9334 72.2663C12.9334 72.0895 12.8632 71.9199 12.7382 71.7949C12.6131 71.6698 12.4436 71.5996 12.2668 71.5996H8.93343Z" fill="#E2E8F0"/>
<path d="M40.9334 71.5996V68.2663C40.9334 68.0895 40.8632 67.9199 40.7382 67.7949C40.6131 67.6698 40.4436 67.5996 40.2668 67.5996C40.09 67.5996 39.9204 67.6698 39.7954 67.7949C39.6703 67.9199 39.6001 68.0895 39.6001 68.2663V71.5996H36.2668C36.09 71.5996 35.9204 71.6698 35.7954 71.7949C35.6703 71.9199 35.6001 72.0895 35.6001 72.2663C35.6001 72.4431 35.6703 72.6127 35.7954 72.7377C35.9204 72.8627 36.09 72.9329 36.2668 72.9329H39.6001V76.2663C39.6001 76.4431 39.6703 76.6127 39.7954 76.7377C39.9204 76.8627 40.09 76.9329 40.2668 76.9329C40.4436 76.9329 40.6131 76.8627 40.7382 76.7377C40.8632 76.6127 40.9334 76.4431 40.9334 76.2663V72.9329H44.2668C44.4436 72.9329 44.6131 72.8627 44.7382 72.7377C44.8632 72.6127 44.9334 72.4431 44.9334 72.2663C44.9334 72.0895 44.8632 71.9199 44.7382 71.7949C44.6131 71.6698 44.4436 71.5996 44.2668 71.5996H40.9334Z" fill="#E2E8F0"/>
<path d="M72.9334 71.5996V68.2663C72.9334 68.0895 72.8632 67.9199 72.7382 67.7949C72.6131 67.6698 72.4436 67.5996 72.2668 67.5996C72.09 67.5996 71.9204 67.6698 71.7954 67.7949C71.6703 67.9199 71.6001 68.0895 71.6001 68.2663V71.5996H68.2668C68.09 71.5996 67.9204 71.6698 67.7954 71.7949C67.6703 71.9199 67.6001 72.0895 67.6001 72.2663C67.6001 72.4431 67.6703 72.6127 67.7954 72.7377C67.9204 72.8627 68.09 72.9329 68.2668 72.9329H71.6001V76.2663C71.6001 76.4431 71.6703 76.6127 71.7954 76.7377C71.9204 76.8627 72.09 76.9329 72.2668 76.9329C72.4436 76.9329 72.6131 76.8627 72.7382 76.7377C72.8632 76.6127 72.9334 76.4431 72.9334 76.2663V72.9329H76.2668C76.4436 72.9329 76.6131 72.8627 76.7382 72.7377C76.8632 72.6127 76.9334 72.4431 76.9334 72.2663C76.9334 72.0895 76.8632 71.9199 76.7382 71.7949C76.6131 71.6698 76.4436 71.5996 76.2668 71.5996H72.9334Z" fill="#E2E8F0"/>
<path d="M104.933 71.5996V68.2663C104.933 68.0895 104.863 67.9199 104.738 67.7949C104.613 67.6698 104.444 67.5996 104.267 67.5996C104.09 67.5996 103.92 67.6698 103.795 67.7949C103.67 67.9199 103.6 68.0895 103.6 68.2663V71.5996H100.267C100.09 71.5996 99.9204 71.6698 99.7954 71.7949C99.6703 71.9199 99.6001 72.0895 99.6001 72.2663C99.6001 72.4431 99.6703 72.6127 99.7954 72.7377C99.9204 72.8627 100.09 72.9329 100.267 72.9329H103.6V76.2663C103.6 76.4431 103.67 76.6127 103.795 76.7377C103.92 76.8627 104.09 76.9329 104.267 76.9329C104.444 76.9329 104.613 76.8627 104.738 76.7377C104.863 76.6127 104.933 76.4431 104.933 76.2663V72.9329H108.267C108.444 72.9329 108.613 72.8627 108.738 72.7377C108.863 72.6127 108.933 72.4431 108.933 72.2663C108.933 72.0895 108.863 71.9199 108.738 71.7949C108.613 71.6698 108.444 71.5996 108.267 71.5996H104.933Z" fill="#E2E8F0"/>
<path d="M136.933 71.5996V68.2663C136.933 68.0895 136.863 67.9199 136.738 67.7949C136.613 67.6698 136.444 67.5996 136.267 67.5996C136.09 67.5996 135.92 67.6698 135.795 67.7949C135.67 67.9199 135.6 68.0895 135.6 68.2663V71.5996H132.267C132.09 71.5996 131.92 71.6698 131.795 71.7949C131.67 71.9199 131.6 72.0895 131.6 72.2663C131.6 72.4431 131.67 72.6127 131.795 72.7377C131.92 72.8627 132.09 72.9329 132.267 72.9329H135.6V76.2663C135.6 76.4431 135.67 76.6127 135.795 76.7377C135.92 76.8627 136.09 76.9329 136.267 76.9329C136.444 76.9329 136.613 76.8627 136.738 76.7377C136.863 76.6127 136.933 76.4431 136.933 76.2663V72.9329H140.267C140.444 72.9329 140.613 72.8627 140.738 72.7377C140.863 72.6127 140.933 72.4431 140.933 72.2663C140.933 72.0895 140.863 71.9199 140.738 71.7949C140.613 71.6698 140.444 71.5996 140.267 71.5996H136.933Z" fill="#E2E8F0"/>
<path d="M168.933 71.5996V68.2663C168.933 68.0895 168.863 67.9199 168.738 67.7949C168.613 67.6698 168.444 67.5996 168.267 67.5996C168.09 67.5996 167.92 67.6698 167.795 67.7949C167.67 67.9199 167.6 68.0895 167.6 68.2663V71.5996H164.267C164.09 71.5996 163.92 71.6698 163.795 71.7949C163.67 71.9199 163.6 72.0895 163.6 72.2663C163.6 72.4431 163.67 72.6127 163.795 72.7377C163.92 72.8627 164.09 72.9329 164.267 72.9329H167.6V76.2663C167.6 76.4431 167.67 76.6127 167.795 76.7377C167.92 76.8627 168.09 76.9329 168.267 76.9329C168.444 76.9329 168.613 76.8627 168.738 76.7377C168.863 76.6127 168.933 76.4431 168.933 76.2663V72.9329H172.267C172.444 72.9329 172.613 72.8627 172.738 72.7377C172.863 72.6127 172.933 72.4431 172.933 72.2663C172.933 72.0895 172.863 71.9199 172.738 71.7949C172.613 71.6698 172.444 71.5996 172.267 71.5996H168.933Z" fill="#E2E8F0"/>
<path d="M8.93343 103.6V100.266C8.93343 100.089 8.86319 99.9199 8.73817 99.7949C8.61314 99.6698 8.44357 99.5996 8.26676 99.5996C8.08995 99.5996 7.92038 99.6698 7.79536 99.7949C7.67034 99.9199 7.6001 100.089 7.6001 100.266V103.6H4.26676C4.08995 103.6 3.92038 103.67 3.79536 103.795C3.67034 103.92 3.6001 104.089 3.6001 104.266C3.6001 104.443 3.67034 104.613 3.79536 104.738C3.92038 104.863 4.08995 104.933 4.26676 104.933H7.6001V108.266C7.6001 108.443 7.67034 108.613 7.79536 108.738C7.92038 108.863 8.08995 108.933 8.26676 108.933C8.44357 108.933 8.61314 108.863 8.73817 108.738C8.86319 108.613 8.93343 108.443 8.93343 108.266V104.933H12.2668C12.4436 104.933 12.6131 104.863 12.7382 104.738C12.8632 104.613 12.9334 104.443 12.9334 104.266C12.9334 104.089 12.8632 103.92 12.7382 103.795C12.6131 103.67 12.4436 103.6 12.2668 103.6H8.93343Z" fill="#E2E8F0"/>
<path d="M40.9334 103.6V100.266C40.9334 100.089 40.8632 99.9199 40.7382 99.7949C40.6131 99.6698 40.4436 99.5996 40.2668 99.5996C40.09 99.5996 39.9204 99.6698 39.7954 99.7949C39.6703 99.9199 39.6001 100.089 39.6001 100.266V103.6H36.2668C36.09 103.6 35.9204 103.67 35.7954 103.795C35.6703 103.92 35.6001 104.089 35.6001 104.266C35.6001 104.443 35.6703 104.613 35.7954 104.738C35.9204 104.863 36.09 104.933 36.2668 104.933H39.6001V108.266C39.6001 108.443 39.6703 108.613 39.7954 108.738C39.9204 108.863 40.09 108.933 40.2668 108.933C40.4436 108.933 40.6131 108.863 40.7382 108.738C40.8632 108.613 40.9334 108.443 40.9334 108.266V104.933H44.2668C44.4436 104.933 44.6131 104.863 44.7382 104.738C44.8632 104.613 44.9334 104.443 44.9334 104.266C44.9334 104.089 44.8632 103.92 44.7382 103.795C44.6131 103.67 44.4436 103.6 44.2668 103.6H40.9334Z" fill="#E2E8F0"/>
<path d="M72.9334 103.6V100.266C72.9334 100.089 72.8632 99.9199 72.7382 99.7949C72.6131 99.6698 72.4436 99.5996 72.2668 99.5996C72.09 99.5996 71.9204 99.6698 71.7954 99.7949C71.6703 99.9199 71.6001 100.089 71.6001 100.266V103.6H68.2668C68.09 103.6 67.9204 103.67 67.7954 103.795C67.6703 103.92 67.6001 104.089 67.6001 104.266C67.6001 104.443 67.6703 104.613 67.7954 104.738C67.9204 104.863 68.09 104.933 68.2668 104.933H71.6001V108.266C71.6001 108.443 71.6703 108.613 71.7954 108.738C71.9204 108.863 72.09 108.933 72.2668 108.933C72.4436 108.933 72.6131 108.863 72.7382 108.738C72.8632 108.613 72.9334 108.443 72.9334 108.266V104.933H76.2668C76.4436 104.933 76.6131 104.863 76.7382 104.738C76.8632 104.613 76.9334 104.443 76.9334 104.266C76.9334 104.089 76.8632 103.92 76.7382 103.795C76.6131 103.67 76.4436 103.6 76.2668 103.6H72.9334Z" fill="#E2E8F0"/>
<path d="M104.933 103.6V100.266C104.933 100.089 104.863 99.9199 104.738 99.7949C104.613 99.6698 104.444 99.5996 104.267 99.5996C104.09 99.5996 103.92 99.6698 103.795 99.7949C103.67 99.9199 103.6 100.089 103.6 100.266V103.6H100.267C100.09 103.6 99.9204 103.67 99.7954 103.795C99.6703 103.92 99.6001 104.089 99.6001 104.266C99.6001 104.443 99.6703 104.613 99.7954 104.738C99.9204 104.863 100.09 104.933 100.267 104.933H103.6V108.266C103.6 108.443 103.67 108.613 103.795 108.738C103.92 108.863 104.09 108.933 104.267 108.933C104.444 108.933 104.613 108.863 104.738 108.738C104.863 108.613 104.933 108.443 104.933 108.266V104.933H108.267C108.444 104.933 108.613 104.863 108.738 104.738C108.863 104.613 108.933 104.443 108.933 104.266C108.933 104.089 108.863 103.92 108.738 103.795C108.613 103.67 108.444 103.6 108.267 103.6H104.933Z" fill="#E2E8F0"/>
<path d="M136.933 103.6V100.266C136.933 100.089 136.863 99.9199 136.738 99.7949C136.613 99.6698 136.444 99.5996 136.267 99.5996C136.09 99.5996 135.92 99.6698 135.795 99.7949C135.67 99.9199 135.6 100.089 135.6 100.266V103.6H132.267C132.09 103.6 131.92 103.67 131.795 103.795C131.67 103.92 131.6 104.089 131.6 104.266C131.6 104.443 131.67 104.613 131.795 104.738C131.92 104.863 132.09 104.933 132.267 104.933H135.6V108.266C135.6 108.443 135.67 108.613 135.795 108.738C135.92 108.863 136.09 108.933 136.267 108.933C136.444 108.933 136.613 108.863 136.738 108.738C136.863 108.613 136.933 108.443 136.933 108.266V104.933H140.267C140.444 104.933 140.613 104.863 140.738 104.738C140.863 104.613 140.933 104.443 140.933 104.266C140.933 104.089 140.863 103.92 140.738 103.795C140.613 103.67 140.444 103.6 140.267 103.6H136.933Z" fill="#E2E8F0"/>
<path d="M168.933 103.6V100.266C168.933 100.089 168.863 99.9199 168.738 99.7949C168.613 99.6698 168.444 99.5996 168.267 99.5996C168.09 99.5996 167.92 99.6698 167.795 99.7949C167.67 99.9199 167.6 100.089 167.6 100.266V103.6H164.267C164.09 103.6 163.92 103.67 163.795 103.795C163.67 103.92 163.6 104.089 163.6 104.266C163.6 104.443 163.67 104.613 163.795 104.738C163.92 104.863 164.09 104.933 164.267 104.933H167.6V108.266C167.6 108.443 167.67 108.613 167.795 108.738C167.92 108.863 168.09 108.933 168.267 108.933C168.444 108.933 168.613 108.863 168.738 108.738C168.863 108.613 168.933 108.443 168.933 108.266V104.933H172.267C172.444 104.933 172.613 104.863 172.738 104.738C172.863 104.613 172.933 104.443 172.933 104.266C172.933 104.089 172.863 103.92 172.738 103.795C172.613 103.67 172.444 103.6 172.267 103.6H168.933Z" fill="#EA580C"/>
<path d="M8.93343 135.6V132.266C8.93343 132.089 8.86319 131.92 8.73817 131.795C8.61314 131.67 8.44357 131.6 8.26676 131.6C8.08995 131.6 7.92038 131.67 7.79536 131.795C7.67034 131.92 7.6001 132.089 7.6001 132.266V135.6H4.26676C4.08995 135.6 3.92038 135.67 3.79536 135.795C3.67034 135.92 3.6001 136.089 3.6001 136.266C3.6001 136.443 3.67034 136.613 3.79536 136.738C3.92038 136.863 4.08995 136.933 4.26676 136.933H7.6001V140.266C7.6001 140.443 7.67034 140.613 7.79536 140.738C7.92038 140.863 8.08995 140.933 8.26676 140.933C8.44357 140.933 8.61314 140.863 8.73817 140.738C8.86319 140.613 8.93343 140.443 8.93343 140.266V136.933H12.2668C12.4436 136.933 12.6131 136.863 12.7382 136.738C12.8632 136.613 12.9334 136.443 12.9334 136.266C12.9334 136.089 12.8632 135.92 12.7382 135.795C12.6131 135.67 12.4436 135.6 12.2668 135.6H8.93343Z" fill="#E2E8F0"/>
<path d="M40.9334 135.6V132.266C40.9334 132.089 40.8632 131.92 40.7382 131.795C40.6131 131.67 40.4436 131.6 40.2668 131.6C40.09 131.6 39.9204 131.67 39.7954 131.795C39.6703 131.92 39.6001 132.089 39.6001 132.266V135.6H36.2668C36.09 135.6 35.9204 135.67 35.7954 135.795C35.6703 135.92 35.6001 136.089 35.6001 136.266C35.6001 136.443 35.6703 136.613 35.7954 136.738C35.9204 136.863 36.09 136.933 36.2668 136.933H39.6001V140.266C39.6001 140.443 39.6703 140.613 39.7954 140.738C39.9204 140.863 40.09 140.933 40.2668 140.933C40.4436 140.933 40.6131 140.863 40.7382 140.738C40.8632 140.613 40.9334 140.443 40.9334 140.266V136.933H44.2668C44.4436 136.933 44.6131 136.863 44.7382 136.738C44.8632 136.613 44.9334 136.443 44.9334 136.266C44.9334 136.089 44.8632 135.92 44.7382 135.795C44.6131 135.67 44.4436 135.6 44.2668 135.6H40.9334Z" fill="#E2E8F0"/>
<path d="M72.9334 135.6V132.266C72.9334 132.089 72.8632 131.92 72.7382 131.795C72.6131 131.67 72.4436 131.6 72.2668 131.6C72.09 131.6 71.9204 131.67 71.7954 131.795C71.6703 131.92 71.6001 132.089 71.6001 132.266V135.6H68.2668C68.09 135.6 67.9204 135.67 67.7954 135.795C67.6703 135.92 67.6001 136.089 67.6001 136.266C67.6001 136.443 67.6703 136.613 67.7954 136.738C67.9204 136.863 68.09 136.933 68.2668 136.933H71.6001V140.266C71.6001 140.443 71.6703 140.613 71.7954 140.738C71.9204 140.863 72.09 140.933 72.2668 140.933C72.4436 140.933 72.6131 140.863 72.7382 140.738C72.8632 140.613 72.9334 140.443 72.9334 140.266V136.933H76.2668C76.4436 136.933 76.6131 136.863 76.7382 136.738C76.8632 136.613 76.9334 136.443 76.9334 136.266C76.9334 136.089 76.8632 135.92 76.7382 135.795C76.6131 135.67 76.4436 135.6 76.2668 135.6H72.9334Z" fill="#E2E8F0"/>
<path d="M104.933 135.6V132.266C104.933 132.089 104.863 131.92 104.738 131.795C104.613 131.67 104.444 131.6 104.267 131.6C104.09 131.6 103.92 131.67 103.795 131.795C103.67 131.92 103.6 132.089 103.6 132.266V135.6H100.267C100.09 135.6 99.9204 135.67 99.7954 135.795C99.6703 135.92 99.6001 136.089 99.6001 136.266C99.6001 136.443 99.6703 136.613 99.7954 136.738C99.9204 136.863 100.09 136.933 100.267 136.933H103.6V140.266C103.6 140.443 103.67 140.613 103.795 140.738C103.92 140.863 104.09 140.933 104.267 140.933C104.444 140.933 104.613 140.863 104.738 140.738C104.863 140.613 104.933 140.443 104.933 140.266V136.933H108.267C108.444 136.933 108.613 136.863 108.738 136.738C108.863 136.613 108.933 136.443 108.933 136.266C108.933 136.089 108.863 135.92 108.738 135.795C108.613 135.67 108.444 135.6 108.267 135.6H104.933Z" fill="#E2E8F0"/>
<path d="M136.933 135.6V132.266C136.933 132.089 136.863 131.92 136.738 131.795C136.613 131.67 136.444 131.6 136.267 131.6C136.09 131.6 135.92 131.67 135.795 131.795C135.67 131.92 135.6 132.089 135.6 132.266V135.6H132.267C132.09 135.6 131.92 135.67 131.795 135.795C131.67 135.92 131.6 136.089 131.6 136.266C131.6 136.443 131.67 136.613 131.795 136.738C131.92 136.863 132.09 136.933 132.267 136.933H135.6V140.266C135.6 140.443 135.67 140.613 135.795 140.738C135.92 140.863 136.09 140.933 136.267 140.933C136.444 140.933 136.613 140.863 136.738 140.738C136.863 140.613 136.933 140.443 136.933 140.266V136.933H140.267C140.444 136.933 140.613 136.863 140.738 136.738C140.863 136.613 140.933 136.443 140.933 136.266C140.933 136.089 140.863 135.92 140.738 135.795C140.613 135.67 140.444 135.6 140.267 135.6H136.933Z" fill="#9333EA"/>
<path d="M168.933 135.6V132.266C168.933 132.089 168.863 131.92 168.738 131.795C168.613 131.67 168.444 131.6 168.267 131.6C168.09 131.6 167.92 131.67 167.795 131.795C167.67 131.92 167.6 132.089 167.6 132.266V135.6H164.267C164.09 135.6 163.92 135.67 163.795 135.795C163.67 135.92 163.6 136.089 163.6 136.266C163.6 136.443 163.67 136.613 163.795 136.738C163.92 136.863 164.09 136.933 164.267 136.933H167.6V140.266C167.6 140.443 167.67 140.613 167.795 140.738C167.92 140.863 168.09 140.933 168.267 140.933C168.444 140.933 168.613 140.863 168.738 140.738C168.863 140.613 168.933 140.443 168.933 140.266V136.933H172.267C172.444 136.933 172.613 136.863 172.738 136.738C172.863 136.613 172.933 136.443 172.933 136.266C172.933 136.089 172.863 135.92 172.738 135.795C172.613 135.67 172.444 135.6 172.267 135.6H168.933Z" fill="#E2E8F0"/>
<path d="M8.93343 167.6V164.266C8.93343 164.089 8.86319 163.92 8.73817 163.795C8.61314 163.67 8.44357 163.6 8.26676 163.6C8.08995 163.6 7.92038 163.67 7.79536 163.795C7.67034 163.92 7.6001 164.089 7.6001 164.266V167.6H4.26676C4.08995 167.6 3.92038 167.67 3.79536 167.795C3.67034 167.92 3.6001 168.089 3.6001 168.266C3.6001 168.443 3.67034 168.613 3.79536 168.738C3.92038 168.863 4.08995 168.933 4.26676 168.933H7.6001V172.266C7.6001 172.443 7.67034 172.613 7.79536 172.738C7.92038 172.863 8.08995 172.933 8.26676 172.933C8.44357 172.933 8.61314 172.863 8.73817 172.738C8.86319 172.613 8.93343 172.443 8.93343 172.266V168.933H12.2668C12.4436 168.933 12.6131 168.863 12.7382 168.738C12.8632 168.613 12.9334 168.443 12.9334 168.266C12.9334 168.089 12.8632 167.92 12.7382 167.795C12.6131 167.67 12.4436 167.6 12.2668 167.6H8.93343Z" fill="#E2E8F0"/>
<path d="M40.9334 167.6V164.266C40.9334 164.089 40.8632 163.92 40.7382 163.795C40.6131 163.67 40.4436 163.6 40.2668 163.6C40.09 163.6 39.9204 163.67 39.7954 163.795C39.6703 163.92 39.6001 164.089 39.6001 164.266V167.6H36.2668C36.09 167.6 35.9204 167.67 35.7954 167.795C35.6703 167.92 35.6001 168.089 35.6001 168.266C35.6001 168.443 35.6703 168.613 35.7954 168.738C35.9204 168.863 36.09 168.933 36.2668 168.933H39.6001V172.266C39.6001 172.443 39.6703 172.613 39.7954 172.738C39.9204 172.863 40.09 172.933 40.2668 172.933C40.4436 172.933 40.6131 172.863 40.7382 172.738C40.8632 172.613 40.9334 172.443 40.9334 172.266V168.933H44.2668C44.4436 168.933 44.6131 168.863 44.7382 168.738C44.8632 168.613 44.9334 168.443 44.9334 168.266C44.9334 168.089 44.8632 167.92 44.7382 167.795C44.6131 167.67 44.4436 167.6 44.2668 167.6H40.9334Z" fill="#E2E8F0"/>
<path d="M72.9334 167.6V164.266C72.9334 164.089 72.8632 163.92 72.7382 163.795C72.6131 163.67 72.4436 163.6 72.2668 163.6C72.09 163.6 71.9204 163.67 71.7954 163.795C71.6703 163.92 71.6001 164.089 71.6001 164.266V167.6H68.2668C68.09 167.6 67.9204 167.67 67.7954 167.795C67.6703 167.92 67.6001 168.089 67.6001 168.266C67.6001 168.443 67.6703 168.613 67.7954 168.738C67.9204 168.863 68.09 168.933 68.2668 168.933H71.6001V172.266C71.6001 172.443 71.6703 172.613 71.7954 172.738C71.9204 172.863 72.09 172.933 72.2668 172.933C72.4436 172.933 72.6131 172.863 72.7382 172.738C72.8632 172.613 72.9334 172.443 72.9334 172.266V168.933H76.2668C76.4436 168.933 76.6131 168.863 76.7382 168.738C76.8632 168.613 76.9334 168.443 76.9334 168.266C76.9334 168.089 76.8632 167.92 76.7382 167.795C76.6131 167.67 76.4436 167.6 76.2668 167.6H72.9334Z" fill="#2563EB"/>
<path d="M104.933 167.6V164.266C104.933 164.089 104.863 163.92 104.738 163.795C104.613 163.67 104.444 163.6 104.267 163.6C104.09 163.6 103.92 163.67 103.795 163.795C103.67 163.92 103.6 164.089 103.6 164.266V167.6H100.267C100.09 167.6 99.9204 167.67 99.7954 167.795C99.6703 167.92 99.6001 168.089 99.6001 168.266C99.6001 168.443 99.6703 168.613 99.7954 168.738C99.9204 168.863 100.09 168.933 100.267 168.933H103.6V172.266C103.6 172.443 103.67 172.613 103.795 172.738C103.92 172.863 104.09 172.933 104.267 172.933C104.444 172.933 104.613 172.863 104.738 172.738C104.863 172.613 104.933 172.443 104.933 172.266V168.933H108.267C108.444 168.933 108.613 168.863 108.738 168.738C108.863 168.613 108.933 168.443 108.933 168.266C108.933 168.089 108.863 167.92 108.738 167.795C108.613 167.67 108.444 167.6 108.267 167.6H104.933Z" fill="#E2E8F0"/>
<path d="M136.933 167.6V164.266C136.933 164.089 136.863 163.92 136.738 163.795C136.613 163.67 136.444 163.6 136.267 163.6C136.09 163.6 135.92 163.67 135.795 163.795C135.67 163.92 135.6 164.089 135.6 164.266V167.6H132.267C132.09 167.6 131.92 167.67 131.795 167.795C131.67 167.92 131.6 168.089 131.6 168.266C131.6 168.443 131.67 168.613 131.795 168.738C131.92 168.863 132.09 168.933 132.267 168.933H135.6V172.266C135.6 172.443 135.67 172.613 135.795 172.738C135.92 172.863 136.09 172.933 136.267 172.933C136.444 172.933 136.613 172.863 136.738 172.738C136.863 172.613 136.933 172.443 136.933 172.266V168.933H140.267C140.444 168.933 140.613 168.863 140.738 168.738C140.863 168.613 140.933 168.443 140.933 168.266C140.933 168.089 140.863 167.92 140.738 167.795C140.613 167.67 140.444 167.6 140.267 167.6H136.933Z" fill="#E2E8F0"/>
<path d="M168.933 167.6V164.266C168.933 164.089 168.863 163.92 168.738 163.795C168.613 163.67 168.444 163.6 168.267 163.6C168.09 163.6 167.92 163.67 167.795 163.795C167.67 163.92 167.6 164.089 167.6 164.266V167.6H164.267C164.09 167.6 163.92 167.67 163.795 167.795C163.67 167.92 163.6 168.089 163.6 168.266C163.6 168.443 163.67 168.613 163.795 168.738C163.92 168.863 164.09 168.933 164.267 168.933H167.6V172.266C167.6 172.443 167.67 172.613 167.795 172.738C167.92 172.863 168.09 172.933 168.267 172.933C168.444 172.933 168.613 172.863 168.738 172.738C168.863 172.613 168.933 172.443 168.933 172.266V168.933H172.267C172.444 168.933 172.613 168.863 172.738 168.738C172.863 168.613 172.933 168.443 172.933 168.266C172.933 168.089 172.863 167.92 172.738 167.795C172.613 167.67 172.444 167.6 172.267 167.6H168.933Z" fill="#E2E8F0"/>
</svg>
